/* XPM */
static char * haskell_20_xpm[] = {
"20 20 5 1",
" 	c None",
".	c #FFFFFF",
"l  c #453b60",
"m  c #5f5287",
"r  c #8d508b",
"                    ",
"                    ",
"                    ",
"llll mmmm           ",
" llll mmm           ",
"  lll mmmm          ",
"  llll mmmm         ",
"   llll mmm  rrrrrrr",
"    lll mmmm  rrrrrr",
"    llll mmmm       ",
"    llll mmmm       ",
"    lll mmmmmm  rrrr",
"   llll mmmmmmm  rrr",
"  llll mmmm mmm     ",
"  lll mmmm  mmmm    ",
" llll mmm    mmmm   ",
"llll mmmm     mmm   ",
"                    ",
"                    ",
"                    "};
