/* XPM */
static char * ru_flag_21[] = {
"20 21 4 1",
" 	c None",
"b  c #0039a6",
"r  c #d52b1e",
"w  c #ffffff",
"wwwwwwwwwwwwwwwwwwww",
"wwwwwwwwwwwwwwwwwwww",
"wwwwwwwwwwwwwwwwwwww",
"wwwwwwwwwwwwwwwwwwww",
"wwwwwwwwwwwwwwwwwwww",
"wwwwwwwwwwwwwwwwwwww",
"wwwwwwwwwwwwwwwwwwww",
"bbbbbbbbbbbbbbbbbbbb",
"bbbbbbbbbbbbbbbbbbbb",
"bbbbbbbbbbbbbbbbbbbb",
"bbbbbbbbbbbbbbbbbbbb",
"bbbbbbbbbbbbbbbbbbbb",
"bbbbbbbbbbbbbbbbbbbb",
"bbbbbbbbbbbbbbbbbbbb",
"rrrrrrrrrrrrrrrrrrrr",
"rrrrrrrrrrrrrrrrrrrr",
"rrrrrrrrrrrrrrrrrrrr",
"rrrrrrrrrrrrrrrrrrrr",
"rrrrrrrrrrrrrrrrrrrr",
"rrrrrrrrrrrrrrrrrrrr",
"rrrrrrrrrrrrrrrrrrrr",
};
